<?xml version="1.0" encoding="UTF-8" standalone="no"?>
<!-- Generator: Adobe Illustrator 18.1.1, SVG Export Plug-In . SVG Version: 6.00 Build 0)  -->

<svg
   xmlns:dc="http://purl.org/dc/elements/1.1/"
   xmlns:cc="http://creativecommons.org/ns#"
   xmlns:rdf="http://www.w3.org/1999/02/22-rdf-syntax-ns#"
   xmlns:svg="http://www.w3.org/2000/svg"
   xmlns="http://www.w3.org/2000/svg"
   xmlns:sodipodi="http://sodipodi.sourceforge.net/DTD/sodipodi-0.dtd"
   xmlns:inkscape="http://www.inkscape.org/namespaces/inkscape"
   id="Capa_1"
   xml:space="preserve"
   viewBox="0 0 30.000001 30.000001"
   height="100%"
   width="100%"
   version="1.1"
   y="0px"
   x="0px"
   inkscape:version="0.48.4 r9939"
   sodipodi:docname="contact.svg"><defs
   id="defs28" /><sodipodi:namedview
   pagecolor="#ffffff"
   bordercolor="#666666"
   borderopacity="1"
   objecttolerance="10"
   gridtolerance="10"
   guidetolerance="10"
   inkscape:pageopacity="0"
   inkscape:pageshadow="2"
   inkscape:window-width="640"
   inkscape:window-height="480"
   id="namedview26"
   showgrid="false"
   inkscape:zoom="7.8666664"
   inkscape:cx="15.000001"
   inkscape:cy="15.000001"
   inkscape:window-x="177"
   inkscape:window-y="55"
   inkscape:window-maximized="0"
   inkscape:current-layer="Capa_1" /><metadata
   id="metadata5121"><rdf:RDF><cc:Work
       rdf:about=""><dc:format>image/svg+xml</dc:format><dc:type
         rdf:resource="http://purl.org/dc/dcmitype/StillImage" /><dc:title /></cc:Work></rdf:RDF></metadata>
<g
   id="g5087"
   transform="translate(-3.7483177e-7,-21.413001)">
</g>
<g
   id="g5089"
   transform="translate(-3.7483177e-7,-21.413001)">
</g>
<g
   id="g5091"
   transform="translate(-3.7483177e-7,-21.413001)">
</g>
<g
   id="g5093"
   transform="translate(-3.7483177e-7,-21.413001)">
</g>
<g
   id="g5095"
   transform="translate(-3.7483177e-7,-21.413001)">
</g>
<g
   id="g5097"
   transform="translate(-3.7483177e-7,-21.413001)">
</g>
<g
   id="g5099"
   transform="translate(-3.7483177e-7,-21.413001)">
</g>
<g
   id="g5101"
   transform="translate(-3.7483177e-7,-21.413001)">
</g>
<g
   id="g5103"
   transform="translate(-3.7483177e-7,-21.413001)">
</g>
<g
   id="g5105"
   transform="translate(-3.7483177e-7,-21.413001)">
</g>
<g
   id="g5107"
   transform="translate(-3.7483177e-7,-21.413001)">
</g>
<g
   id="g5109"
   transform="translate(-3.7483177e-7,-21.413001)">
</g>
<g
   id="g5111"
   transform="translate(-3.7483177e-7,-21.413001)">
</g>
<g
   id="g5113"
   transform="translate(-3.7483177e-7,-21.413001)">
</g>
<g
   id="g5115"
   transform="translate(-3.7483177e-7,-21.413001)">
</g>
<path
   id="path5123"
   d="m24.835,21.785a8.1694,6.9713,0,1,1,-0.0674,-0.89364"
   transform="matrix(1.8361116,0,0,2.1516932,-15.600002,-31.875001)"
   fill="#f7a22b" /><g
   id="g5075"
   transform="matrix(0.35010602,0,0,0.35437537,5.9999998,5.8904274)"
   style="fill:#ffffff">
	<g
   id="g5077"
   fill="#010002"
   style="fill:#ffffff">
		<path
   id="path5079"
   d="m25.989,12.274c8.663,0.085,14.09-0.454,14.823,9.148h10.564c0-14.875-12.973-16.88-25.662-16.88-12.69,0-25.662,2.005-25.662,16.88h10.482c0.811-9.785,6.864-9.232,15.455-9.148z"
   style="fill:#ffffff" />
		<path
   id="path5081"
   d="m5.291,26.204c2.573,0,4.714,0.154,5.19-2.377,0.064-0.344,0.101-0.734,0.101-1.185h-10.582c0,3.765,2.369,3.562,5.291,3.562z"
   style="fill:#ffffff" />
		<path
   id="path5083"
   d="m40.88,22.642h-0.099c0,0.454,0.039,0.845,0.112,1.185,0.502,2.334,2.64,2.189,5.204,2.189,2.936,0,5.316,0.193,5.316-3.374h-10.533z"
   style="fill:#ffffff" />
		<path
   id="path5085"
   d="m35.719,20.078v-1.496c0-0.669-0.771-0.711-1.723-0.711h-1.555c-0.951,0-1.722,0.042-1.722,0.711v2.289h-11v-2.289c0-0.669-0.771-0.711-1.722-0.711h-1.556c-0.951,0-1.722,0.042-1.722,0.711v2.802c-2.506,2.604-10.706,13.689-11.004,15.031l0.004,8.955c0,0.827,0.673,1.5,1.5,1.5h40c0.827,0,1.5-0.673,1.5-1.5v-9c-0.295-1.303-8.493-12.383-11-14.987v-1.305zm-16.542,17.542c-0.805,0-1.458-0.652-1.458-1.458s0.653-1.458,1.458-1.458,1.458,0.652,1.458,1.458-0.653,1.458-1.458,1.458zm0-5c-0.805,0-1.458-0.652-1.458-1.458s0.653-1.458,1.458-1.458,1.458,0.652,1.458,1.458-0.653,1.458-1.458,1.458zm0-4.999c-0.805,0-1.458-0.652-1.458-1.458,0-0.805,0.653-1.458,1.458-1.458s1.458,0.653,1.458,1.458c0,0.806-0.653,1.458-1.458,1.458zm6,9.999c-0.805,0-1.458-0.652-1.458-1.458s0.653-1.458,1.458-1.458c0.806,0,1.458,0.652,1.458,1.458s-0.652,1.458-1.458,1.458zm0-5c-0.805,0-1.458-0.652-1.458-1.458s0.653-1.458,1.458-1.458c0.806,0,1.458,0.652,1.458,1.458s-0.652,1.458-1.458,1.458zm0-4.999c-0.805,0-1.458-0.652-1.458-1.458,0-0.805,0.653-1.458,1.458-1.458,0.806,0,1.458,0.653,1.458,1.458,0,0.806-0.652,1.458-1.458,1.458zm6,9.999c-0.806,0-1.458-0.652-1.458-1.458s0.652-1.458,1.458-1.458,1.458,0.652,1.458,1.458-0.652,1.458-1.458,1.458zm0-5c-0.806,0-1.458-0.652-1.458-1.458s0.652-1.458,1.458-1.458,1.458,0.652,1.458,1.458-0.652,1.458-1.458,1.458zm0-4.999c-0.806,0-1.458-0.652-1.458-1.458,0-0.805,0.652-1.458,1.458-1.458s1.458,0.653,1.458,1.458c0,0.806-0.652,1.458-1.458,1.458z"
   style="fill:#ffffff" />
	</g>
</g></svg>