<?xml version="1.0" encoding="UTF-8" standalone="no"?>
<!-- Generator: Adobe Illustrator 16.0.0, SVG Export Plug-In . SVG Version: 6.00 Build 0)  -->

<svg
   xmlns:dc="http://purl.org/dc/elements/1.1/"
   xmlns:cc="http://creativecommons.org/ns#"
   xmlns:rdf="http://www.w3.org/1999/02/22-rdf-syntax-ns#"
   xmlns:svg="http://www.w3.org/2000/svg"
   xmlns="http://www.w3.org/2000/svg"
   xmlns:sodipodi="http://sodipodi.sourceforge.net/DTD/sodipodi-0.dtd"
   xmlns:inkscape="http://www.inkscape.org/namespaces/inkscape"
   id="Capa_1"
   xml:space="preserve"
   height="30"
   viewBox="0 0 29.999999 29.999999"
   width="30"
   version="1.1"
   y="0px"
   x="0px"
   inkscape:version="0.48.4 r9939"
   sodipodi:docname="play.svg"><defs
   id="defs25" /><sodipodi:namedview
   pagecolor="#ffffff"
   bordercolor="#666666"
   borderopacity="1"
   objecttolerance="10"
   gridtolerance="10"
   guidetolerance="10"
   inkscape:pageopacity="0"
   inkscape:pageshadow="2"
   inkscape:window-width="640"
   inkscape:window-height="480"
   id="namedview23"
   showgrid="false"
   inkscape:zoom="7.8666667"
   inkscape:cx="15"
   inkscape:cy="15"
   inkscape:window-x="159"
   inkscape:window-y="49"
   inkscape:window-maximized="0"
   inkscape:current-layer="Capa_1" /><metadata
   id="metadata4513"><rdf:RDF><cc:Work
       rdf:about=""><dc:format>image/svg+xml</dc:format><dc:type
         rdf:resource="http://purl.org/dc/dcmitype/StillImage" /><dc:title /></cc:Work></rdf:RDF></metadata>
<g
   id="g4479"
   transform="translate(1.5034389e-8,-539.411)">
</g>
<g
   id="g4481"
   transform="translate(1.5034389e-8,-539.411)">
</g>
<g
   id="g4483"
   transform="translate(1.5034389e-8,-539.411)">
</g>
<g
   id="g4485"
   transform="translate(1.5034389e-8,-539.411)">
</g>
<g
   id="g4487"
   transform="translate(1.5034389e-8,-539.411)">
</g>
<g
   id="g4489"
   transform="translate(1.5034389e-8,-539.411)">
</g>
<g
   id="g4491"
   transform="translate(1.5034389e-8,-539.411)">
</g>
<g
   id="g4493"
   transform="translate(1.5034389e-8,-539.411)">
</g>
<g
   id="g4495"
   transform="translate(1.5034389e-8,-539.411)">
</g>
<g
   id="g4497"
   transform="translate(1.5034389e-8,-539.411)">
</g>
<g
   id="g4499"
   transform="translate(1.5034389e-8,-539.411)">
</g>
<g
   id="g4501"
   transform="translate(1.5034389e-8,-539.411)">
</g>
<g
   id="g4503"
   transform="translate(1.5034389e-8,-539.411)">
</g>
<g
   id="g4505"
   transform="translate(1.5034389e-8,-539.411)">
</g>
<g
   id="g4507"
   transform="translate(1.5034389e-8,-539.411)">
</g>
<path
   id="path4515"
   d="m32.12,526.66a14.778,12.139,0,1,1,-0.12192,-1.5561"
   transform="matrix(1.0150123,0,0,1.2356671,-2.6020406,-635.7764)"
   fill="#22bf35" /><g
   id="g4473"
   transform="matrix(0.03161161,0,0,0.03218466,5.9999999,5.83683)"
   style="fill:#ffffff">
	<g
   id="g4475"
   style="fill:#ffffff">
		<path
   id="path4477"
   d="M439.16,288.33h-97.64v-7.254c0-16.028-12.987-29.017-29.017-29.017h-7.3v-10.625c0-9.486,7.714-17.201,17.199-17.201h138.69c32.079,0,58.188-26.106,58.188-58.185v-65.484c0-32.079-26.108-58.187-58.188-58.187h-272.26v-9.604c0-6.724-5.445-12.167-12.168-12.167h-92.217c-5.592,0-10.096,3.831-11.518,8.964h-39.716c-12.358,0-22.414,10.057-22.414,22.413v21.773c0,12.358,10.055,22.414,22.414,22.414h39.715c1.419,5.133,5.924,8.966,11.518,8.966h92.218c6.724,0,12.168-5.443,12.168-12.167v-9.606h272.26c9.486,0,17.201,7.715,17.201,17.201v65.482c0,9.486-7.715,17.199-17.201,17.199h-138.69c-32.079,0-58.184,26.105-58.184,58.187v10.625h-7.305c-16.028,0-29.017,12.989-29.017,29.017v7.255h-97.67c-71.922-0.03-130.23,58.27-130.23,130.21,0,71.937,58.308,130.24,130.23,130.24,55.702,0,103.09-35.023,121.71-84.185h65.521c18.602,49.16,66.011,84.185,121.69,84.185,71.944,0,130.25-58.305,130.25-130.24-0.002-71.932-58.307-130.24-130.25-130.24zm-366.88-212.65h-39.066c-1.061,0-1.92-0.861-1.92-1.922v-21.772c0-1.061,0.859-1.922,1.92-1.922h39.064v25.616h0.002zm86.913,357.69h-19.641v19.644c0,9.565-7.746,17.311-17.312,17.311-9.555,0-17.309-7.744-17.309-17.311v-19.642h-19.637c-9.555,0-17.309-7.744-17.309-17.311,0-9.555,7.754-17.312,17.309-17.312h19.633v-19.62c0-9.564,7.754-17.31,17.309-17.31,9.566,0,17.312,7.744,17.312,17.31v19.62h19.641c9.555,0,17.31,7.757,17.31,17.312,0.001,9.567-7.755,17.311-17.31,17.311zm238.63,0.22c-12.049,0-21.813-9.777-21.813-21.824,0-12.037,9.768-21.805,21.813-21.805,12.048,0,21.804,9.768,21.804,21.805,0,12.047-9.756,21.824-21.804,21.824zm48.571,48.579c-12.036,0-21.812-9.774-21.812-21.812,0-12.059,9.774-21.812,21.812-21.812,12.048,0,21.824,9.756,21.824,21.812,0,12.038-9.778,21.812-21.824,21.812zm0-97.17c-12.036,0-21.812-9.756-21.812-21.803s9.774-21.813,21.812-21.813c12.048,0,21.824,9.768,21.824,21.813s-9.778,21.803-21.824,21.803zm48.581,48.591c-12.049,0-21.804-9.777-21.804-21.824,0-12.037,9.755-21.805,21.804-21.805,12.046,0,21.813,9.768,21.813,21.805-0.002,12.047-9.767,21.824-21.813,21.824z"
   style="fill:#ffffff" />
	</g>
</g></svg>