<?xml version="1.0" encoding="UTF-8" standalone="no"?>
<!-- Generator: Adobe Illustrator 16.0.0, SVG Export Plug-In . SVG Version: 6.00 Build 0)  -->

<svg
   xmlns:dc="http://purl.org/dc/elements/1.1/"
   xmlns:cc="http://creativecommons.org/ns#"
   xmlns:rdf="http://www.w3.org/1999/02/22-rdf-syntax-ns#"
   xmlns:svg="http://www.w3.org/2000/svg"
   xmlns="http://www.w3.org/2000/svg"
   xmlns:sodipodi="http://sodipodi.sourceforge.net/DTD/sodipodi-0.dtd"
   xmlns:inkscape="http://www.inkscape.org/namespaces/inkscape"
   version="1.1"
   id="Capa_1"
   x="0px"
   y="0px"
   width="30"
   height="30"
   viewBox="0 0 30 30"
   xml:space="preserve"
   inkscape:version="0.48.4 r9939"
   sodipodi:docname="D:\Users\Daniel\Downloads\black302.svg"><metadata
   id="metadata41"><rdf:RDF><cc:Work
       rdf:about=""><dc:format>image/svg+xml</dc:format><dc:type
         rdf:resource="http://purl.org/dc/dcmitype/StillImage" /><dc:title></dc:title></cc:Work></rdf:RDF></metadata><defs
   id="defs39">
	
</defs><sodipodi:namedview
   pagecolor="#ffffff"
   bordercolor="#666666"
   borderopacity="1"
   objecttolerance="10"
   gridtolerance="10"
   guidetolerance="10"
   inkscape:pageopacity="0"
   inkscape:pageshadow="2"
   inkscape:window-width="1858"
   inkscape:window-height="1058"
   id="namedview37"
   showgrid="false"
   fit-margin-top="0"
   fit-margin-left="0"
   fit-margin-right="0"
   fit-margin-bottom="0"
   inkscape:zoom="21.939202"
   inkscape:cx="14.784458"
   inkscape:cy="11.974186"
   inkscape:window-x="54"
   inkscape:window-y="-8"
   inkscape:window-maximized="1"
   inkscape:current-layer="Capa_1" />

<g
   id="g7"
   transform="translate(0,-13.028)">
</g>
<g
   id="g9"
   transform="translate(0,-13.028)">
</g>
<g
   id="g11"
   transform="translate(0,-13.028)">
</g>
<g
   id="g13"
   transform="translate(0,-13.028)">
</g>
<g
   id="g15"
   transform="translate(0,-13.028)">
</g>
<g
   id="g17"
   transform="translate(0,-13.028)">
</g>
<g
   id="g19"
   transform="translate(0,-13.028)">
</g>
<g
   id="g21"
   transform="translate(0,-13.028)">
</g>
<g
   id="g23"
   transform="translate(0,-13.028)">
</g>
<g
   id="g25"
   transform="translate(0,-13.028)">
</g>
<g
   id="g27"
   transform="translate(0,-13.028)">
</g>
<g
   id="g29"
   transform="translate(0,-13.028)">
</g>
<g
   id="g31"
   transform="translate(0,-13.028)">
</g>
<g
   id="g33"
   transform="translate(0,-13.028)">
</g>
<g
   id="g35"
   transform="translate(0,-13.028)">
</g>
<g
   id="g3795"
   transform="translate(0,-13.028)"><path
     transform="matrix(2.5571471,0,0,2.4494777,-9.0659341,6.789769)"
     sodipodi:open="true"
     sodipodi:end="6.1546429"
     sodipodi:start="0"
     d="m 15.277155,8.6705141 c 0,3.3820559 -2.626258,6.1237549 -5.8659116,6.1237549 -3.2396537,0 -5.8659119,-2.741699 -5.8659119,-6.1237549 0,-3.3820562 2.6262582,-6.1237545 5.8659119,-6.1237545 2.9489606,0 5.4394936,2.285572 5.8175166,5.3387583"
     sodipodi:ry="6.1237545"
     sodipodi:rx="5.865912"
     sodipodi:cy="8.6705141"
     sodipodi:cx="9.4112434"
     id="path3020"
     style="fill:#f7352b;fill-opacity:1"
     sodipodi:type="arc" /><path
     d="m 22.5,33.238863 -0.06026,0.07275 C 20.455754,35.707772 17.81307,37.028 14.999998,37.028 12.186511,37.028 9.544241,35.708183 7.55984,33.311613 L 7.5,33.238863 7.51413,33.145523 c 0.383166,-2.515806 1.688925,-4.53672 3.676652,-5.691721 l 0.141297,-0.08201 0.112623,0.118801 c 0.938799,0.99143 2.201335,1.536915 3.554885,1.536915 1.35355,0 2.616086,-0.545908 3.554885,-1.536915 l 0.112623,-0.118801 0.141298,0.08201 c 1.987726,1.155001 3.293484,3.175915 3.677066,5.691721 l 0.01454,0.09334 z m -7.500001,-5.22151 c 2.461904,0 4.465008,-2.016324 4.465008,-4.494466 0,-2.478156 -2.003104,-4.494892 -4.465008,-4.494892 -2.461906,0 -4.46501,2.016736 -4.46501,4.494468 0,2.477729 2.003104,4.49489 4.46501,4.49489 z"
     id="path5"
     inkscape:connector-curvature="0" /></g></svg>