<?xml version="1.0" encoding="UTF-8" standalone="no"?>
<!-- Generator: Adobe Illustrator 16.0.0, SVG Export Plug-In . SVG Version: 6.00 Build 0)  -->

<svg
   xmlns:dc="http://purl.org/dc/elements/1.1/"
   xmlns:cc="http://creativecommons.org/ns#"
   xmlns:rdf="http://www.w3.org/1999/02/22-rdf-syntax-ns#"
   xmlns:svg="http://www.w3.org/2000/svg"
   xmlns="http://www.w3.org/2000/svg"
   xmlns:sodipodi="http://sodipodi.sourceforge.net/DTD/sodipodi-0.dtd"
   xmlns:inkscape="http://www.inkscape.org/namespaces/inkscape"
   version="1.1"
   id="Capa_1"
   x="0px"
   y="0px"
   width="30.000002"
   height="30.000002"
   viewBox="0 0 30.000002 30.000002"
   xml:space="preserve"
   inkscape:version="0.48.4 r9939"
   sodipodi:docname="D:\Users\Daniel\Downloads\nut2.svg"><metadata
   id="metadata3907"><rdf:RDF><cc:Work
       rdf:about=""><dc:format>image/svg+xml</dc:format><dc:type
         rdf:resource="http://purl.org/dc/dcmitype/StillImage" /><dc:title></dc:title></cc:Work></rdf:RDF></metadata><defs
   id="defs3905" /><sodipodi:namedview
   pagecolor="#ffffff"
   bordercolor="#666666"
   borderopacity="1"
   objecttolerance="10"
   gridtolerance="10"
   guidetolerance="10"
   inkscape:pageopacity="0"
   inkscape:pageshadow="2"
   inkscape:window-width="1858"
   inkscape:window-height="1058"
   id="namedview3903"
   showgrid="false"
   fit-margin-top="0"
   fit-margin-left="0"
   fit-margin-right="0"
   fit-margin-bottom="0"
   inkscape:zoom="24.679738"
   inkscape:cx="15.48841"
   inkscape:cy="17.179666"
   inkscape:window-x="54"
   inkscape:window-y="-8"
   inkscape:window-maximized="1"
   inkscape:current-layer="Capa_1" />

<g
   id="g3873"
   transform="translate(0,-582.001)">
</g>
<g
   id="g3875"
   transform="translate(0,-582.001)">
</g>
<g
   id="g3877"
   transform="translate(0,-582.001)">
</g>
<g
   id="g3879"
   transform="translate(0,-582.001)">
</g>
<g
   id="g3881"
   transform="translate(0,-582.001)">
</g>
<g
   id="g3883"
   transform="translate(0,-582.001)">
</g>
<g
   id="g3885"
   transform="translate(0,-582.001)">
</g>
<g
   id="g3887"
   transform="translate(0,-582.001)">
</g>
<g
   id="g3889"
   transform="translate(0,-582.001)">
</g>
<g
   id="g3891"
   transform="translate(0,-582.001)">
</g>
<g
   id="g3893"
   transform="translate(0,-582.001)">
</g>
<g
   id="g3895"
   transform="translate(0,-582.001)">
</g>
<g
   id="g3897"
   transform="translate(0,-582.001)">
</g>
<g
   id="g3899"
   transform="translate(0,-582.001)">
</g>
<g
   id="g3901"
   transform="translate(0,-582.001)">
</g>
<g
   id="g4421"><path
     transform="matrix(1.9830921,0,0,2.8147115,-5,-3.1510224)"
     sodipodi:open="true"
     sodipodi:end="6.1546429"
     sodipodi:start="0"
     d="m 17.649206,6.448627 a 7.5639453,5.329143 0 1 1 -0.0624,-0.683136"
     sodipodi:ry="5.329143"
     sodipodi:rx="7.5639453"
     sodipodi:cy="6.448627"
     sodipodi:cx="10.08526"
     id="path3909"
     style="fill:#2566a0;fill-opacity:1"
     sodipodi:type="arc" /><g
     transform="matrix(0.02941176,0,0,0.02941172,6,5.9999999)"
     id="g3864">
	<g
   id="g3866">
		<g
   id="Cogwheel">
			<g
   id="g3869">
				<path
   inkscape:connector-curvature="0"
   id="path3871"
   d="m 580.042,262.414 -50.681,-8.453 c -5.834,-25.13 -15.799,-48.635 -29.146,-69.864 l 28.229,-39.512 c 10.767,-15.07 9.063,-35.707 -4.036,-48.807 l -8.187,-8.185 C 503.12,74.492 482.486,72.79 467.414,83.557 l -39.531,28.229 C 406.673,98.437 383.168,88.492 358.019,82.64 L 349.567,31.959 C 346.507,13.521 330.537,0 311.853,0 h -11.705 c -18.705,0 -34.655,13.521 -37.734,31.958 l -8.453,50.681 c -25.13,5.833 -48.635,15.797 -69.864,29.146 L 144.604,83.556 C 129.534,72.788 108.878,74.51 95.778,87.592 l -8.186,8.185 c -13.081,13.101 -14.803,33.756 -4.035,48.826 l 28.229,39.512 c -13.349,21.21 -23.294,44.714 -29.146,69.864 l -50.681,8.453 C 13.521,265.493 0,281.462 0,300.148 v 11.705 c 0,18.704 13.521,34.654 31.958,37.733 l 50.681,8.453 c 5.833,25.13 15.797,48.635 29.146,69.863 l -28.229,39.513 c -10.768,15.07 -9.065,35.706 4.035,48.807 l 8.186,8.187 c 13.101,13.101 33.737,14.803 48.807,4.036 l 39.531,-28.229 c 21.21,13.35 44.714,23.313 69.864,29.146 l 8.453,50.681 c 3.06,18.437 19.029,31.958 37.715,31.958 h 11.685 c 18.704,0 34.654,-13.521 37.733,-31.958 l 8.452,-50.681 c 25.132,-5.834 48.637,-15.799 69.864,-29.146 l 39.531,28.229 c 15.07,10.767 35.706,9.063 48.807,-4.036 l 8.187,-8.187 c 13.101,-13.101 14.803,-33.735 4.036,-48.807 l -28.229,-39.513 c 13.349,-21.209 23.294,-44.715 29.146,-69.863 l 50.681,-8.453 C 598.478,346.507 612,330.537 612,311.853 v -11.705 c 0,-18.686 -13.521,-34.655 -31.958,-37.734 z M 306,420.75 c -63.38,0 -114.75,-51.37 -114.75,-114.75 0,-63.38 51.37,-114.75 114.75,-114.75 63.38,0 114.75,51.37 114.75,114.75 0,63.38 -51.37,114.75 -114.75,114.75 z" />
			</g>
		</g>
	</g>
</g></g></svg>